<svg width="190" height="48" viewBox="0 0 190 48" fill="none" xmlns="http://www.w3.org/2000/svg">
<path fill-rule="evenodd" clip-rule="evenodd" d="M0 19.1983C0 8.59951 8.59464 0 19.1999 0C29.8052 0 38.3998 8.59951 38.3998 19.19H28.7999V28.7933H19.1999V38.3967H28.7999V48H0V19.1983ZM28.8004 28.8021H38.4003V38.4054H28.8004V28.8021Z" fill="#1A2147"/>
<path fill-rule="evenodd" clip-rule="evenodd" d="M64.7991 34.9991L70.6865 12.6001H78.0472L83.9346 34.9991H79.5833L78.367 30.0711H70.3667L69.1504 34.9991H64.7991ZM71.3589 26.168H77.3748L74.6553 15.2569H74.0785L71.3589 26.168ZM86.2688 34.9999V19.1278H90.2376V20.9209H90.8143C91.0474 20.2814 91.4389 19.8122 91.9829 19.5133C92.5268 19.2144 93.1603 19.065 93.8865 19.065H95.8052V22.6483H93.8208C92.7957 22.6483 91.953 22.9202 91.2925 23.4641C90.632 24.0081 90.3003 24.8448 90.3003 25.9775V34.9999H86.2688ZM100.527 34.488C101.774 35.1275 103.166 35.4473 104.702 35.4473V35.4354C106.214 35.4354 107.517 35.1664 108.605 34.6344C109.693 34.1025 110.572 33.3703 111.244 32.4438C111.914 31.5174 112.389 30.4863 112.667 29.3567L108.764 28.4302C108.59 29.4553 108.19 30.2801 107.562 30.9107C106.935 31.5413 106.011 31.8551 104.795 31.8551C103.579 31.8551 102.56 31.4576 101.738 30.6567C100.916 29.8558 100.506 28.7112 100.506 27.2169V26.8971C100.506 25.3849 100.916 24.2314 101.738 23.4424C102.56 22.6534 103.579 22.2589 104.795 22.2589C106.011 22.2589 106.929 22.5847 107.547 23.2362C108.166 23.8847 108.54 24.6916 108.668 25.6509L112.571 24.8201C112.359 23.6456 111.917 22.5936 111.244 21.6672C110.572 20.7407 109.693 20.0115 108.605 19.4766C107.517 18.9417 106.238 18.6757 104.702 18.6757C103.166 18.6757 101.777 18.9954 100.527 19.635C99.2811 20.2775 98.2949 21.204 97.5687 22.4203C96.8424 23.6366 96.4808 25.11 96.4808 26.8374V27.2856C96.4808 29.016 96.8424 30.4863 97.5687 31.7027C98.2919 32.919 99.2811 33.8484 100.527 34.488ZM114.875 34.9991V12.6001H118.906V21.0786H119.483C119.74 20.5675 120.212 20.0714 120.906 19.5903C121.599 19.1091 122.648 18.87 124.059 18.87C125.296 18.87 126.378 19.1539 127.307 19.7188C128.234 20.2836 128.954 21.0636 129.468 22.0558C129.979 23.048 130.236 24.2046 130.236 25.5285V34.9991H126.204V25.8483C126.204 24.6528 125.912 23.7563 125.326 23.1616C124.74 22.5639 123.9 22.265 122.813 22.265C121.575 22.265 120.616 22.6774 119.932 23.4963C119.247 24.3181 118.906 25.4627 118.906 26.9361V34.9991H114.875ZM132.507 19.1262L134.745 34.9983H141.433L143.481 21.8458H144.057L146.104 34.9983H152.793L155.031 19.1262H151.033L149.625 32.2788H149.048L147.001 19.1262H140.537L138.49 32.2788H137.913L136.505 19.1262H132.507ZM162.363 35.4473C161.233 35.4473 160.22 35.2501 159.324 34.8556C158.427 34.4611 157.719 33.8843 157.196 33.1282C156.673 32.3721 156.413 31.4487 156.413 30.3608C156.413 28.7171 156.99 27.4799 158.14 26.6491C159.291 25.8183 160.764 25.3999 162.557 25.3999H166.909V24.5033C166.909 23.7562 166.673 23.1435 166.203 22.6624C165.734 22.1812 164.987 21.9421 163.962 21.9421C162.937 21.9421 162.214 22.1723 161.724 22.6295C161.233 23.0897 160.914 23.6815 160.764 24.4047L157.052 23.1555C157.309 22.3456 157.719 21.6044 158.284 20.932C158.849 20.2596 159.608 19.7157 160.555 19.3003C161.502 18.8849 162.662 18.6757 164.028 18.6757C166.117 18.6757 167.772 19.1987 168.989 20.2447C170.205 21.2906 170.812 22.8058 170.812 24.7872V30.7075C170.812 31.347 171.111 31.6668 171.708 31.6668H172.987V34.996H170.301C169.512 34.996 168.86 34.8048 168.349 34.4193C167.838 34.0367 167.581 33.5227 167.581 32.8832V32.8503H166.974C166.888 33.1073 166.696 33.442 166.398 33.8574C166.099 34.2728 165.63 34.6404 164.99 34.9602C164.35 35.28 163.475 35.4413 162.366 35.4413L162.363 35.4473ZM163.068 32.1838C164.198 32.1838 165.121 31.87 165.836 31.2395C166.55 30.6119 166.909 29.7721 166.909 28.7291V28.4093H162.844C162.097 28.4093 161.511 28.5707 161.084 28.8905C160.657 29.2102 160.444 29.6585 160.444 30.2353C160.444 30.8121 160.669 31.2813 161.117 31.6429C161.565 32.0045 162.217 32.1868 163.068 32.1868V32.1838ZM173.913 38.0048V41.3968L173.916 41.3998H177.436C178.781 41.3998 179.758 41.1637 180.365 40.6945C180.972 40.2253 181.468 39.4871 181.853 38.486L189.34 19.1262H184.988L181.02 30.4528H180.443L176.474 19.1262H172.123L178.778 36.3402L178.458 37.0455C178.309 37.3653 178.145 37.6043 177.962 37.7657C177.78 37.9241 177.454 38.0048 176.985 38.0048H173.913Z" fill="#1A2147"/>
</svg>
