<svg width="145" height="124" viewBox="0 0 145 124" fill="none" xmlns="http://www.w3.org/2000/svg">
<path d="M145 36.8758C145 48.7625 142.449 60.1089 137.347 70.9151C132.245 81.7212 125.532 91.5817 117.208 100.497C108.616 109.682 99.3519 117.516 89.4167 124L81.7638 113.059C91.4305 105.224 99.3518 97.7952 105.528 90.7713C111.435 84.0174 116.671 75.2375 121.236 64.4314L109.555 53.8954C103.38 48.7625 99.2175 43.7647 97.0693 38.902C94.9212 34.0392 93.8472 29.0414 93.8472 23.9085C93.8472 15.8039 95.9954 9.72551 100.292 5.67322C104.588 1.89108 110.361 1.24582e-05 117.611 1.3092e-05C121.639 1.34442e-05 125.532 0.540324 129.292 1.62094C132.782 2.9717 136.139 5.13292 139.361 8.1046C143.12 17.2898 145 26.8802 145 36.8758ZM63.236 36.8758C63.236 48.7625 60.6852 60.1089 55.5833 70.915C50.4815 81.7211 43.7684 91.5817 35.4443 100.497C26.8517 109.682 17.5878 117.516 7.65265 124L-1.45176e-05 113.059C9.66665 105.224 17.588 97.7952 23.7639 90.7713C29.6713 84.0174 34.9074 75.2375 39.4722 64.4314L27.7917 53.8954C21.6157 48.7625 17.4537 43.7647 15.3055 38.902C13.1574 34.0392 12.0834 29.0414 12.0834 23.9085C12.0834 15.8039 14.2315 9.7255 18.5278 5.67321C22.8241 1.89108 28.5971 5.31019e-06 35.8471 5.944e-06C39.8749 6.29612e-06 43.7684 0.540317 47.5277 1.62093C51.0184 2.97169 54.3749 5.13292 57.5971 8.1046C61.3564 17.2898 63.236 26.8802 63.236 36.8758Z" fill="#4FAD84"/>
</svg>
