<svg width="147" height="132" viewBox="0 0 147 132" fill="none" xmlns="http://www.w3.org/2000/svg">
<path d="M120.349 109.085C113.2 110.772 105.24 102.967 103.731 96.5742C102.223 90.1819 106.796 83.6324 113.945 81.9455C121.094 80.2586 129.054 88.0643 130.562 94.4566C132.071 100.849 127.498 107.398 120.349 109.085Z" fill="#D6CBF2"/>
<path d="M2 11.5C5 8.5 9.92509 5.76098 12.5836 4.81151C20.6825 1.91905 27.9129 2.00023 36.4795 2.00023C40.8518 2.00023 46.057 1.98814 50.2052 3.48855C54.4871 5.03733 59.7329 4.59224 63.7241 6.83729C66.5364 8.41919 68.3105 9.39533 70.4629 11.6743C71.3659 12.6304 71.8046 13.5117 73.5 15" stroke="#1A2147" stroke-width="3" stroke-linecap="round"/>
<path d="M73.5 128C73.9105 124.716 80.1868 121.924 82.8453 120.974C90.9442 118.082 98.1746 118.163 106.741 118.163C111.114 118.163 116.319 118.151 120.467 119.651C124.749 121.2 129.995 120.755 133.986 123C136.798 124.582 138.572 125.558 140.725 127.837C141.628 128.793 142.957 131.636 142.957 129.325" stroke="#1A2147" stroke-width="3" stroke-linecap="round"/>
<path d="M73.4395 16.1392C73.4395 34.8378 74.8515 53.4147 74.1836 72.1167C73.7627 83.9021 73.4395 95.7173 73.4395 107.589C73.4395 110.192 75.1528 127.173 73.5 128" stroke="#1A2147" stroke-width="3" stroke-linecap="round"/>
<path d="M145 11.5C145 30.1986 145.113 53.4148 144.445 72.1169C144.024 83.9023 143.701 95.7175 143.701 107.589C143.701 110.193 144.299 126.492 143 129.5" stroke="#1A2147" stroke-width="3" stroke-linecap="round"/>
<path d="M2 13C2 35.5723 3.48833 60.2491 3.48833 82.7419C3.48833 96.5178 2.5 126 2.5 129.5" stroke="#1A2147" stroke-width="3" stroke-linecap="round"/>
<path d="M2.74414 129.996C5.51393 128.53 8 125 11.0953 124.043C15 122.5 18.302 121.849 22.0924 120.901C29.0408 119.164 35.7664 118.834 42.9289 118.834C49.8117 118.834 56.0717 121.018 62.6906 122.72C66.0898 123.594 68.1213 124.396 71.2071 126.11C72.3121 126.724 72.0721 126.492 73.5 127.5" stroke="#1A2147" stroke-width="3" stroke-linecap="round"/>
<path d="M73.5 15C76.2698 13.5336 76.5 8.5 81.357 7.20914C84.6116 6.34417 88.5637 5.01471 92.3541 4.06712C99.3025 2.33002 106.028 2 113.191 2C120.073 2 126.333 4.1842 132.952 5.88618C136.352 6.76026 138.383 7.56189 141.469 9.27626C142.574 9.89014 143.5 10 145.19 11.6741" stroke="#1A2147" stroke-width="3" stroke-linecap="round"/>
<path d="M22.3944 29.6639C33.6004 30.2855 45.3257 29.5212 56.5083 28.5517" stroke="#1A2147" stroke-width="3" stroke-linecap="round"/>
<path d="M22.1306 44.2535C30.0305 44.4165 37.8271 43.077 45.7676 43.2409C49.0858 43.3093 52.3633 42.8768 55.6647 42.945" stroke="#1A2147" stroke-width="3" stroke-linecap="round"/>
<path d="M21.0068 58.1315C22.7882 58.6653 25.571 58.4068 26.3217 58.3151C30.9253 57.7527 35.4991 57.4331 40.1322 57.6902C43.4791 57.8758 46.8259 58.0615 50.1727 58.2472C51.0953 58.2984 52.926 58.4956 54.8191 59.0057" stroke="#1A2147" stroke-width="3" stroke-linecap="round"/>
<path d="M94.3447 28.0672C96.5 28.4999 98.7402 28.0892 99.4558 27.956C103.844 27.1396 108.217 26.5672 112.678 26.5672C115.9 26.5672 119.123 26.5672 122.345 26.5672C123.233 26.5672 125.655 26.4326 127.5 26.9999" stroke="#1A2147" stroke-width="3" stroke-linecap="round"/>
<path d="M21.1077 73.335C22.1936 72.8452 26.3016 72.6089 28.4385 72.5185C31.8027 72.3762 35.1876 72.6276 38.5264 72.4825C40.0774 72.4151 52.7388 72.623 54.4814 73.4769" stroke="#1A2147" stroke-width="3" stroke-linecap="round"/>
<path d="M92.8495 57.7975C95.5 57.7977 96.7223 57.1207 98.6792 56.9679C101.76 56.7274 104.864 56.8796 107.921 56.637C109.341 56.5244 123.45 56.772 125 56.9679" stroke="#1A2147" stroke-width="3" stroke-linecap="round"/>
<path d="M92.4006 72.6377C93.9995 71.9997 96.2734 71.9609 98.2302 71.8081C101.311 71.5676 105.943 72.0507 109 71.8082" stroke="#1A2147" stroke-width="3" stroke-linecap="round"/>
<path d="M22.0207 88.0083C27.5429 88.3147 33.1385 87.7627 38.6696 87.3184C40.2633 87.1903 51.755 86.0417 55.4798 88.117" stroke="#1A2147" stroke-width="3" stroke-linecap="round"/>
<path d="M93.0134 41.8624C98.5312 42.398 104.158 42.079 109.715 41.8649C111.317 41.8032 122.851 40.9344 125.5 42.4998" stroke="#1A2147" stroke-width="3" stroke-linecap="round"/>
<path d="M111.042 92.966C111.105 93.5315 111.879 93.9113 112.196 94.367C113.225 95.8429 113.881 97.5098 114.762 99.0654C115.055 99.5833 117.542 102.053 118.034 101.294C118.891 99.9709 119.759 98.6553 120.614 97.331C123.88 92.2722 127.172 87.1527 130.704 82.2734C132.039 80.4291 133.219 78.3095 134.78 76.641C135.23 76.1589 135.628 75.7619 134.837 75.5654" stroke="#1A2147" stroke-width="3" stroke-linecap="round"/>
</svg>
