<svg width="174" height="125" viewBox="0 0 174 125" fill="none" xmlns="http://www.w3.org/2000/svg">
<path d="M79.027 27.5397C79.027 46.2932 56.7996 55.1534 37.4609 55.1534C18.1222 55.1534 0 47.4127 0 28.6592C0 9.90562 22.7406 0.299316 42.0793 0.299316C61.418 0.299316 79.027 8.78615 79.027 27.5397Z" fill="#D4E4E9"/>
<path d="M172 110.525C172 92.0999 169.28 73.9442 167.351 55.6196C165.832 41.1885 167.351 25.9912 167.351 11.5091C167.351 7.11264 144.078 9.10744 140.596 9.18482C127.14 9.48384 113.775 11.0443 100.204 11.0443C88.4264 11.0443 76.7719 12.9037 64.9261 12.9037C54.2708 12.9037 43.5454 13.8335 33.0054 13.8335C28.2707 13.8335 23.536 13.8335 18.8012 13.8335C14.9027 13.8335 16.434 14.9564 15.7538 18.0172C14.0414 25.7231 13.946 33.5369 13.946 41.622C13.946 59.5016 13.0162 77.1288 13.0162 94.9265C13.0162 102.377 14.4512 109.353 15.7538 116.517C16.0446 118.116 15.7837 122.177 16.9418 123.335C17.6649 123.335 24.567 122.612 26.4973 122.612C52.7653 122.612 78.8592 122.158 105.059 121.682C121.071 121.391 136.91 118.893 152.992 118.893C158.847 118.893 164.454 117.033 170.141 117.033" stroke="#1A2147" stroke-width="3" stroke-linecap="round"/>
<path d="M27.4271 98.3858C27.4271 96.5901 31.1359 93.3967 32.5406 95.8549C33.881 98.2006 33.9262 102.432 31.146 104.067C29.3749 105.109 26.0325 108.035 26.0325 110.24C26.0325 111.588 33.7285 110.937 35.3298 110.937" stroke="#1A2147" stroke-width="3" stroke-linecap="round"/>
<path d="M39.9783 101.64C39.9783 103.319 42.9509 104.821 43.8005 106.289C44.4543 107.418 45.6666 108.307 46.8479 108.716C47.4419 108.922 49.9942 109.543 48.3458 109.543" stroke="#1A2147" stroke-width="3" stroke-linecap="round"/>
<path d="M47.4165 101.175C46.3007 101.872 46.0156 103.451 45.0922 104.429C44.2954 105.273 42.9491 106.52 42.3288 107.451C41.6521 108.466 39.457 110.994 39.5138 110.937" stroke="#1A2147" stroke-width="3" stroke-linecap="round"/>
<path d="M55.0864 98.6181C54.2846 99.42 54.1567 101.353 54.1567 102.453C54.1567 103.809 54.1567 105.165 54.1567 106.521C54.1567 108.133 54.0557 109.038 55.4351 110.111C55.8388 110.425 57.4839 110.601 57.9789 110.459C58.7325 110.244 59.5728 109.319 60.187 108.858C62.1825 107.361 62.8931 106.216 63.4023 103.783C63.781 101.974 64.8551 98.9243 64.0351 97.1202C63.018 94.8826 61.8528 94.1321 59.2702 94.2019C57.1659 94.2588 54.854 95.8863 54.854 98.1533" stroke="#1A2147" stroke-width="3" stroke-linecap="round"/>
<path d="M74.6109 94.2021C74.4465 92.8871 71.5514 93.1601 70.7758 93.5048C69.0387 94.2769 68.1028 96.7448 68.1028 98.6183C68.1028 103.172 75.756 103.342 76.0055 98.8508C76.0418 98.1968 76.0055 97.5302 76.0055 96.8751C76.0055 95.8517 76.0055 95.8517 76.0055 96.8751C76.0055 99.1988 75.3756 101.439 75.3082 103.732C75.2597 105.379 74.913 109.308 72.8676 109.762C71.9198 109.973 68.8085 108.949 69.4974 107.916" stroke="#1A2147" stroke-width="3" stroke-linecap="round"/>
<path d="M87.1621 99.7803C87.1621 98.4728 84.6423 99.1695 83.908 99.4317C82.742 99.8481 81.6037 100.896 81.0155 101.988C80.4799 102.983 80.2265 104.686 80.6023 105.772C80.931 106.722 83.0677 107.547 83.908 106.753C84.7008 106.005 85.7738 105.112 86.2323 104.08C86.6797 103.074 87.6269 99.983 87.6269 101.085C87.6269 102.708 87.8241 103.865 88.3759 105.41C88.6399 106.15 89.0215 106.989 89.0215 107.786C89.0215 108.389 89.0215 108.738 89.0215 107.915" stroke="#1A2147" stroke-width="3" stroke-linecap="round"/>
<path d="M93.6702 88.6235C94.3438 89.4655 94.135 91.6024 94.135 92.6265C94.135 94.988 93.9299 97.3293 93.9026 99.677C93.879 101.706 93.6702 103.688 93.6702 105.72C93.6702 106.403 93.4377 107.182 93.4377 106.056" stroke="#1A2147" stroke-width="3" stroke-linecap="round"/>
<path d="M95.0649 100.478C95.0649 99.1493 97.5255 99.1304 98.5514 98.9024C100.53 98.4627 101.971 100.468 102.038 102.286C102.11 104.225 100.299 105.08 98.8355 106.056C98.2324 106.458 95.7395 107.405 95.2974 106.521" stroke="#1A2147" stroke-width="3" stroke-linecap="round"/>
<path d="M106.222 106.056L106.454 105.591" stroke="#1A2147" stroke-width="3" stroke-linecap="round"/>
<path d="M110.87 105.591V105.359" stroke="#1A2147" stroke-width="3" stroke-linecap="round"/>
<path d="M115.751 105.126C115.778 104.912 115.827 104.972 115.984 104.894" stroke="#1A2147" stroke-width="3" stroke-linecap="round"/>
<path d="M166.703 44.101C162.303 44.101 158.765 43.6463 154.318 44.6346C148.932 45.8314 142.98 45.1155 137.889 47.5271C134.181 49.2839 128.205 50.5135 126.01 54.4637C123.897 58.268 122.724 62.26 122.724 66.5956C122.724 76.3338 134.891 79.9913 142.692 79.9913C150.926 79.9913 164.705 78.4402 169.211 77.4669" stroke="#1A2147" stroke-width="3" stroke-linecap="round"/>
</svg>
