<svg width="111" height="133" viewBox="0 0 111 133" fill="none" xmlns="http://www.w3.org/2000/svg">
<path d="M2.58791 72.798C2.58791 91.8064 3.76373 110.695 3.76373 129.695L14.3461 130.283H38.9077C46.9408 130.283 54.6906 131.178 62.6854 130.87C77.8452 130.287 107.824 129.695 107.824 129.695C107.824 129.695 109 81.3263 109 74.4311C109 69.0291 108.412 63.8759 108.412 58.5249C108.412 44.6165 108.195 28.3579 97.8293 17.9918C86.146 6.30843 69.3307 1.53027 53.1482 1.53027C48.0632 1.53027 43.55 2.55086 38.777 3.91457C31.8667 5.88896 14.4141 16.3534 10.9493 23.2829C5.43195 34.3176 2 48.08 2 60.3539C2 64.568 2.58791 68.7341 2.58791 72.798Z" stroke="#1A2147" stroke-width="3" stroke-linecap="round"/>
<path d="M38.9081 130.283C46.9413 130.283 54.6911 131.178 62.6858 130.871C77.8457 130.288 107.824 129.695 107.824 129.695C107.824 129.695 109 81.3266 109 74.4314C109 74.4314 68.2648 91.9838 49.9145 100.139C31.5643 108.295 3.76416 129.695 3.76416 129.695L14.3465 130.283H38.9081Z" fill="#C7EBC5" stroke="#1A2147" stroke-width="3" stroke-linecap="round" stroke-linejoin="bevel"/>
</svg>
