<svg width="156" height="155" viewBox="0 0 156 155" fill="none" xmlns="http://www.w3.org/2000/svg">
<path d="M137.07 76.366C137.07 108.79 95.0481 135.075 65.7653 135.075C36.4825 135.075 12.7441 108.79 12.7441 76.366C12.7441 43.9418 54.7657 17.6567 84.0485 17.6567C113.331 17.6567 137.07 43.9418 137.07 76.366Z" fill="#D4E4E9"/>
<path d="M75.9979 18.6073C71.8554 18.7667 67.7854 19.5642 63.6117 19.5642C59.9662 19.5642 57.536 21.5013 54.4682 23.2057C52.9432 24.0529 51.425 25.0472 49.6838 25.5447C48.537 25.8724 47.409 26.4429 46.3348 26.98C45.0287 27.633 43.4486 28.3566 42.2681 29.1861C40.2344 30.6152 38.12 31.7878 36.168 33.306C34.4423 34.6482 32.9998 35.9302 31.5032 37.5056C30.3251 38.7458 29.5089 40.2981 28.7522 41.8115C27.7988 43.7183 26.3795 45.1732 25.0975 46.8351C23.9989 48.2592 23.0003 49.9863 22.28 51.6328C21.88 52.5472 21.2897 53.361 20.8447 54.2509C20.4805 54.9792 20.0853 56.0322 19.5423 56.6431C18.8315 57.4428 18.4348 59.0111 17.9874 60.0054C17.2703 61.599 16.7756 63.526 16.4325 65.2417C15.894 67.9337 15.4756 70.4489 15.4756 73.2023C15.4756 75.2552 15.5766 77.6333 16.0736 79.6214C16.6389 81.8825 17.1501 84.7004 17.1501 87.0238C17.1501 89.3136 17.7821 91.4047 18.1601 93.5891C18.6511 96.4255 19.5427 99.2346 20.9643 101.722C21.9799 103.5 22.9095 106.251 24.8051 107.304C25.9863 107.96 26.1439 109.805 27.3036 110.467C27.5825 110.627 27.9416 111.649 28.1542 111.956C28.9433 113.096 29.8155 114.042 30.7856 115.012C32.6087 116.836 34.6638 118.398 36.4072 120.275C37.7723 121.745 39.8944 122.447 41.3112 123.863C43.244 125.796 45.9503 127.14 48.4346 128.382C50.435 129.382 52.2079 130.694 54.229 131.705C55.8732 132.527 57.7402 132.804 59.3855 133.552C60.6395 134.122 62.0929 134.03 63.3193 134.575C64.778 135.223 66.8615 134.709 68.2233 135.466C68.7618 135.765 69.7665 135.585 70.3629 135.585C71.9375 135.585 73.5531 135.941 75.0942 136.25C76.9809 136.627 78.967 137.021 80.9019 137.021C84.457 137.021 87.5552 136.95 90.8294 135.399C92.2975 134.704 93.6771 133.816 95.1353 133.087C95.9782 132.665 96.9999 131.941 97.8864 131.744C98.4413 131.621 99.366 130.87 99.8666 130.562C100.553 130.139 101.248 129.681 101.833 129.126C103.15 127.879 105.759 126.628 107.442 126.016C108.508 125.629 108.662 124.817 109.488 124.156C110.695 123.19 111.718 122.057 112.838 120.993C113.457 120.405 114.414 119.993 115.11 119.451C115.612 119.061 116.059 118.633 116.545 118.255C118.186 116.979 119.469 115.374 120.918 113.869C121.621 113.14 122.21 112.477 122.778 111.65C123.384 110.769 124.744 109.583 125.038 108.554C125.265 107.759 126.089 106.844 126.473 106.055C127.22 104.52 127.94 102.869 128.865 101.43C132.967 95.0496 133.889 87.8856 133.889 80.3789C133.889 78.8322 133.41 77.1712 133.41 75.6477C133.41 73.8404 133.243 72.0729 132.746 70.3317C132.507 69.4959 132.453 68.2778 132.453 67.4079C132.453 66.3312 131.975 65.2627 131.975 64.1785C131.975 63.3645 131.571 62.5918 131.51 61.7597C131.392 60.1681 131.188 58.9366 130.659 57.4671C130.079 55.856 128.35 54.0543 128.148 52.3372C128.02 51.2518 127.119 48.9161 126.353 48.1508C125.816 47.613 125.478 46.6041 125.038 45.9314C124.367 44.9059 123.711 43.8501 123.124 42.7684C122.625 41.8487 121.616 39.8655 120.612 39.4194C120.058 39.1729 119.521 38.4011 119.057 37.984C117.999 37.0316 116.258 36.9199 115.23 35.8311C114.506 35.065 114.258 33.8576 113.436 33.1997C112.984 32.8382 112.91 32.1237 112.359 31.8175C111.727 31.4661 111.269 30.7708 110.631 30.3291C109.748 29.7177 108.724 29.3592 107.814 28.7741C107.277 28.429 106.616 27.8169 106.02 27.6844C104.778 27.4084 103.415 26.3885 102.312 25.8371C101.207 25.2844 100.145 24.9633 99.0692 24.3486C97.7124 23.5733 96.4582 22.9963 95.3214 21.9032C94.4652 21.0799 92.892 20.0427 91.6667 20.0427C89.0323 20.0427 86.6136 18.8466 84.025 18.8466C81.3751 18.8466 78.6249 18.1289 75.9979 18.1289" stroke="#1A2147" stroke-width="3" stroke-linecap="round"/>
<path d="M76.442 19.1914C73.0014 19.3826 69.803 22.5644 67.2327 24.5635C65.0739 26.2426 62.6252 28.3222 60.9227 30.5112C57.1093 35.4141 52.0585 40.1058 49.1979 45.6681C43.1834 57.3629 43.4421 69.9471 43.4421 82.9104C43.4421 84.1487 43.8258 85.1964 43.8258 86.4065C43.8258 88.7165 43.4421 90.9493 43.4421 93.2495C43.4421 96.1518 44.4379 98.896 44.5932 101.691C44.7276 104.111 45.7034 107.347 46.725 109.536C47.8395 111.924 48.515 114.448 49.5816 116.848C51.6821 121.574 53.8987 125.578 57.6397 129.319C58.7951 130.475 60.0138 131.529 61.4769 132.304C62.6726 132.937 63.0382 134.513 64.163 135.075" stroke="#1A2147" stroke-width="3" stroke-linecap="round"/>
<path d="M78.36 136.226C79.0629 136.148 80.3804 135.259 80.7476 134.692C81.3861 133.705 83.2447 133.26 84.1158 132.389C86.4471 130.058 89.0918 127.933 91.4065 125.482C95.6207 121.02 98.234 114.815 100.808 109.153C102.053 106.414 103.183 103.612 104.069 100.732C105.147 97.2306 104.837 93.5728 104.837 89.8816C104.837 84.4281 105.988 79.5911 105.988 74.1064C105.988 67.7811 106.389 60.6258 103.515 54.8777C101.965 51.7773 100.808 48.509 99.6565 45.2847C99.1644 43.9069 98.4049 42.3978 97.7379 41.0638C97.0469 39.6817 96.631 37.6508 95.6274 36.4591C94.2141 34.7807 93.1959 32.3126 92.0887 30.3196C90.7164 27.8496 88.1341 26.1331 86.4181 23.9882C85.4444 22.7711 82.565 21.1134 81.2166 20.3429C79.5 19.3619 78.5061 18.0405 76.4414 18.0405" stroke="#1A2147" stroke-width="3" stroke-linecap="round"/>
<path d="M76.0582 18.8081C76.0582 27.108 75.2907 35.1347 75.2907 43.4515C75.2907 58.2292 73.3721 72.7598 73.3721 87.4941C73.3721 91.8452 74.5233 95.8974 74.5233 100.157C74.5233 100.982 74.9547 101.6 74.907 102.459C74.8587 103.328 74.5233 104.107 74.5233 105.06C74.5233 107.908 74.1396 110.674 74.1396 113.502C74.1396 117.659 73.3721 121.975 73.3721 126.25C73.3721 127.87 72.8919 129.501 72.9884 131.238C73.0711 132.726 73.3721 134.254 73.3721 135.843" stroke="#1A2147" stroke-width="3" stroke-linecap="round"/>
<path d="M29.6279 41.4473C31.8577 42.5622 33.8865 44.0322 36.2365 44.8155C37.7382 45.3161 39.1171 45.7926 40.564 46.4356C43.6203 47.794 46.4622 50.2728 49.9651 50.2728C53.0079 50.2728 55.7131 52.1914 58.812 52.1914C63.3391 52.1914 67.7619 52.5752 72.1996 52.5752C77.3336 52.5752 82.4769 52.9589 87.655 52.9589C89.5593 52.9589 91.1188 51.99 92.9418 51.8077C94.8899 51.6129 97.0408 51.0667 98.9108 50.4434C101.191 49.6833 103.572 49.1707 105.818 48.3542C107.198 47.8524 109.26 46.5924 110.593 46.4356C111.674 46.3085 114.188 44.8298 115.198 44.3252C117.068 43.39 123.044 41.831 120.953 41.831" stroke="#1A2147" stroke-width="3" stroke-linecap="round"/>
<path d="M15.0469 77.1336C22.6407 77.1336 30.3672 77.5173 37.8783 77.5173C40.8136 77.5173 43.7072 78.6684 46.7038 78.6684C50.7937 78.6684 54.9045 79.1514 58.9829 79.4146C62.9597 79.6711 66.9393 79.4815 70.8995 79.7983C73.8617 80.0353 76.9264 80.587 79.8957 80.587C83.0538 80.587 86.1373 80.2033 89.2755 80.2033C91.024 80.2033 93.0914 80.0201 94.7755 79.5212C96.7581 78.9337 99.0413 79.5786 101 78.7537C103.708 77.6134 106.444 77.901 109.442 77.901C111.536 77.901 113.527 77.5173 115.582 77.5173C118.536 77.5173 121.567 77.1336 124.407 77.1336C126.885 77.1336 129.752 76.7407 132.082 77.5173" stroke="#1A2147" stroke-width="3" stroke-linecap="round"/>
<path d="M29.6279 114.355C33.9055 113.702 38.1877 111.648 42.4613 111.306C44.7738 111.121 46.8968 110.027 49.1977 109.771C52.5738 109.396 55.8777 108.651 59.1957 108.236C63.7246 107.67 68.1926 107.064 72.7965 107.064C77.0858 107.064 81.4108 107.448 85.6511 107.448C87.6326 107.448 89.4632 107.831 91.407 107.831C92.8226 107.831 94.9514 107.898 96.3101 108.3C99.1604 109.145 102.665 109.987 105.605 110.134C108.458 110.276 110.862 112.052 113.663 112.052C115.532 112.052 117.851 112.803 119.419 113.587" stroke="#1A2147" stroke-width="3" stroke-linecap="round"/>
<path d="M18.8837 33.7734C10.7362 41.0157 7.06269 51.7623 4.89922 62.3393C3.23097 70.4952 2 77.4649 2 85.9168C2 92.1578 3.73089 100.782 7.54263 105.913C10.6266 110.064 14.5784 114.28 16.9651 118.576C19.3672 122.899 21.5068 127.722 25.0232 131.238C26.8985 133.114 29.6464 135.09 30.9922 137.378C31.8847 138.895 37.1337 140.747 38.8372 141.599C44.9208 144.641 50.3364 147.764 56.4883 150.425C63.7141 153.549 73.6375 152.727 81.4302 152.727C83.8401 152.727 86.6877 153.116 89.062 152.684C90.5297 152.417 95.2315 151.816 96.2247 151.021C101.092 147.128 107.309 145.576 112.17 141.599C116.314 138.209 121.708 135.856 125.558 132.006C127.187 130.377 128.951 129.111 130.93 127.998C132.029 127.38 126.816 127.401 125.942 127.401C122.31 127.401 115.155 128.936 115.155 128.936C115.155 128.936 123.49 129.253 127.434 128.126C131.377 127 128.628 135.047 128.628 138.145" stroke="#1A2147" stroke-width="3" stroke-linecap="round"/>
<path d="M135.535 117.424C135.535 112.075 141.786 105.928 144.361 101.351C146.691 97.2084 149.665 93.8822 151.651 89.4126C152.523 87.4513 153.186 85.436 153.186 83.3157C153.186 77.284 154.32 70.8336 153.911 64.8971C153.34 56.6116 151.571 48.3362 148.241 40.7227C142.796 28.2775 132.937 20.7608 120.954 14.4165C111.083 9.19075 100.289 5.44603 89.4886 2.90488C81.8044 1.09682 73.0602 2.4445 65.3143 3.11806C57.5802 3.79059 51.0112 7.77153 43.8259 9.9824C39.6286 11.2739 34.7419 14.7535 31.8879 18.0832C31.2452 18.833 22.7675 25.6388 22.7639 25.6297C21.5602 22.6203 25.0236 17.087 25.0236 13.8196C25.0236 12.9462 25.791 8.42912 25.791 10.4088C25.791 13.0806 25.791 15.7524 25.791 18.4243C25.791 20.2999 25.4664 21.671 24.9809 23.37C24.4201 25.3329 24.0909 25.0058 26.5585 23.9669C30.6858 22.2291 35.1536 22.2615 39.605 22.2615" stroke="#1A2147" stroke-width="3" stroke-linecap="round"/>
</svg>
