<svg width="28" height="38" viewBox="0 0 28 38" fill="none" xmlns="http://www.w3.org/2000/svg">
<path d="M5.24897 3.24248C6.0142 2.58086 8.33741 2.80072 9.27016 2.75032C11.8686 2.60991 14.7379 3.2579 17.2438 2.49959C17.9442 2.28764 18.693 2.16923 19.4091 2.03529C19.8143 1.95949 20.0617 1.99625 19.5551 2.23958C19.2059 2.40733 18.7899 3.13749 18.5498 3.44678C17.8407 4.36061 17.2834 5.3862 16.5221 6.26046C13.1649 10.1154 9.48016 13.546 6.02227 17.2831C5.22053 18.1495 6.047 17.3533 6.48626 17.1159C8.28004 16.1466 10.4479 15.4055 12.3978 14.943C16.7939 13.9 21.9478 14.4247 24.4184 18.9638C25.782 21.4692 26.4509 24.5136 25.6643 27.3677C24.9806 29.8483 23.5074 32.5825 21.4025 33.9052C16.6702 36.8787 9.49253 36.4944 4.63032 33.9609C3.32881 33.2827 1.95606 32.5737 2.00108 30.8222C2.02392 29.9336 2 29 2.5 28" stroke="#1A2147" stroke-width="3" stroke-linecap="round"/>
</svg>
