<svg width="24" height="39" viewBox="0 0 24 39" fill="none" xmlns="http://www.w3.org/2000/svg">
<path d="M5.25377 9.87009C5.0767 8.45219 5.07925 6.91084 5.59906 5.45403C6.16981 3.85444 7.61737 2.58515 9.23412 2.1228C11.4401 1.49194 13.8194 3.43137 15.4013 4.76283C18.9954 7.78798 19.566 14.2857 17.6936 18.3854C16.9691 19.9716 16.0856 21.4502 14.8258 22.6766C13.315 24.1474 11.128 25.005 9.24371 25.8639C6.45332 27.1357 2.95018 27.9251 2.10786 31.2975C1.90194 32.122 2.01723 32.9842 2.23255 33.8032C2.37112 34.3302 2.08824 35.2838 2.41478 35.704C2.99734 36.4537 4.34074 36.583 5.19622 36.6928C7.31955 36.9653 9.33035 37 11.488 37C15.002 37 18.489 36.8272 22 36.8272" stroke="#1A2147" stroke-width="3" stroke-linecap="round"/>
</svg>
