<svg width="135" height="124" viewBox="0 0 135 124" fill="none" xmlns="http://www.w3.org/2000/svg">
<path d="M87.7767 4.61752C123.366 13.4661 139.746 59.5339 130.425 86.0386C122.527 118.008 81.9916 127.735 46.4026 118.887C10.8136 110.038 -4.66116 63.0914 4.65985 36.5867C13.9809 10.0821 52.1877 -4.23105 87.7767 4.61752Z" fill="#C7EBC5" stroke="#1A2147" stroke-width="3" stroke-linecap="round"/>
<path d="M13 57.9135C13 45.1463 18.5235 33.9706 26.5842 24.1658C39.1288 8.90703 65.1886 -2.02985 84.9462 3.5881C101.457 8.28276 125.509 22.0777 130.68 40.0897C134.385 52.996 132.541 67.9274 132.541 81.1464C132.541 87.4267 125.079 100.291 120.567 105.281C116.516 109.76 111.811 114.53 105.775 116.246C98.0314 118.448 88.4974 119 80.4684 119C60.702 119 45.4539 112.573 29.7539 100.073C16.4381 89.4716 13 74.2751 13 57.9135Z" fill="white" stroke="#1A2147" stroke-width="3" stroke-linecap="round"/>
<path d="M51 42.9999C51 39.3552 54.0513 36.8542 57.1944 35.3333C62.8051 32.6184 65.7447 37.867 68.5 41.9999" stroke="#1A2147" stroke-width="3" stroke-linecap="round"/>
<path d="M83 42C83.9524 38.4018 86.8746 36.0534 90.7222 36.6111C96.6465 37.4697 99.5844 42.6688 102 47.5" stroke="#1A2147" stroke-width="3" stroke-linecap="round"/>
<path d="M41 73C52.8885 84.3304 64.5032 95.9999 82.1281 95.9999C86.992 95.9999 92.8944 95.5047 97.4048 93.5704C101.304 91.8983 103.639 89.7369 105.921 86.3536C107.222 84.4257 107.93 81.8425 108.64 79.6408C109.14 78.0931 109.279 76.3183 110 74.9437" stroke="#1A2147" stroke-width="3" stroke-linecap="round"/>
<path d="M22 16C22.896 16.256 23.9122 17.0591 24.6667 17.6429C25.1842 18.0433 25.7919 18.402 26.2667 18.8571C26.6721 19.2459 27.5013 19.7328 28 20" stroke="#1A2147" stroke-width="3" stroke-linecap="round"/>
<path d="M8 33C10.1777 33.5041 12.16 34.8176 14.1967 35.6093C14.7467 35.8231 15.2083 36.4245 15.8197 36.4839C16.0076 36.5021 16.9397 36.8946 17 37" stroke="#1A2147" stroke-width="3" stroke-linecap="round"/>
<path d="M4 60C6.72157 60 9.34269 60 12 60" stroke="#1A2147" stroke-width="3" stroke-linecap="round"/>
<path d="M11 88C12.0615 87.6368 13.1234 87.2273 14.1508 86.7778C14.4978 86.626 15.2828 86.5836 15.5397 86.3968C15.9095 86.1279 16.5745 86.2127 17 86" stroke="#1A2147" stroke-width="3" stroke-linecap="round"/>
<path d="M33 112C34.4367 111.321 35.6075 110.126 36.8372 109.18C37.0324 109.03 37.2226 108.902 37.3566 108.69C37.5595 108.369 38.6632 108 39 108" stroke="#1A2147" stroke-width="3" stroke-linecap="round"/>
</svg>
