<svg width="171" height="49" viewBox="0 0 171 49" fill="none" xmlns="http://www.w3.org/2000/svg">
<path d="M5.03079 13.0537C4.58663 20.7341 2.12694 28.2548 1.67502 36.0695C1.64499 36.5887 2.58796 35.5679 3.06575 35.3625C4.57598 34.7135 6.14715 34.5999 7.71142 34.1314C11.779 32.9131 16.0295 33.2564 20.1246 32.1495M3.68511 12.9761C8.99122 13.1594 13.9699 11.5461 19.2733 11.8528M4.89007 24.4065C8.29341 23.9121 11.6794 23.2602 15.0969 22.972M25.8816 11.6085C24.7316 16.6194 21.6717 33.9399 29.5606 35.4802C40.0522 37.5286 40.4238 17.4584 41.6633 12.5695M59.7034 26.9829C58.021 23.3201 53.7893 26.4585 53.0526 29.2383C52.5327 31.1997 51.9642 33.4035 54.1858 34.3929C56.2523 35.3132 58.5735 34.7127 60.7009 34.4834M63.8843 28.9423C62.7712 30.8799 62.1939 33.8805 65.2064 34.6804C67.7324 35.3511 71.2776 34.9215 72.967 32.7596C74.1969 31.1856 74.5287 27.8511 72.5685 26.7251C68.7596 24.5371 65.3426 25.0576 63.5825 29.2114M77.2887 24.8512C77.1393 27.4348 76.4224 29.9316 76.2727 32.5214M77.1403 27.4189C78.5354 26.2055 80.207 24.8592 82.1226 24.59C83.2786 24.4275 82.9685 25.6381 82.9252 26.3858C82.8296 28.0393 82.46 29.7835 81.9382 31.3542C81.8052 31.7544 81.6687 33.2644 81.677 33.1203M82.7805 28.8903C83.402 28.2595 89.4026 23.2798 89.2057 26.6855C89.0915 28.66 88.8411 31.224 87.7015 32.8962M93.6451 19.2133C93.2252 28.7346 92.5458 38.2224 91.9952 47.7439M94.0888 26.3956C95.5977 24.8281 97.4052 23.6554 99.5617 24.7083C101.45 25.6302 101.201 27.943 101.056 29.6611C100.911 31.3876 97.8425 31.973 96.5484 32.263C94.9225 32.6275 93.1391 32.9176 93.2542 30.9275M114.659 22.1464C114.295 23.6607 111.984 28.7852 112.626 31.216C113.17 33.2722 116.12 31.8141 117.89 30.6348M131.889 25.7569C128.861 18.7114 123.807 25.6636 122.535 27.4583C121.244 29.281 120.293 32.4668 123.547 31.4131C125.259 30.8588 127.036 30.104 128.545 29.1417C129.322 28.6461 131.733 27.3793 131.856 26.3273C131.971 25.3493 132.014 28.1562 131.724 28.6097C131.658 29.751 131.625 30.3216 130.923 32.571M115.746 18.2015L115.494 17.6144M104.876 23.0118C106.227 21.4852 107.518 19.9729 108.751 18.4024M108.751 18.4024C109.59 17.3333 110.402 16.2371 111.187 15.0911C112.216 13.5898 113.616 11.7053 113.341 9.74487C113.283 9.33185 112.459 7.47076 111.772 7.72982C110.551 8.18988 110.543 10.1053 110.367 11.1155C109.937 13.5813 109.331 15.9906 108.751 18.4024ZM108.751 18.4024C108.159 20.8627 107.594 23.3257 107.273 25.8539C106.971 28.2198 106.874 31.1765 105.994 33.3818M136.476 23.5511C136.166 25.3256 135.882 27.0961 135.525 28.8635C135.384 29.5579 134.971 30.7153 135.192 31.4603C135.278 31.7534 135.986 29.6104 136.079 29.317C136.547 27.8457 137.468 26.505 138.592 25.4626C140.125 24.0414 145.134 21.494 144.567 25.6888C144.209 28.3336 143.211 30.8428 143.056 33.5213M154.579 9.99845C154.149 12.4642 153.758 14.9394 153.293 17.3986C152.518 21.492 151.253 25.4505 150.31 29.5036C150.061 30.5754 149.831 31.6509 149.576 32.7213M148.223 23.3714C150.104 23.4465 151.781 23.0975 153.631 22.8095C154.998 22.5965 156.331 22.6952 157.704 22.7747M169.666 1.56738C168.347 5.56863 167.961 9.90855 167.006 14.009C165.967 18.472 164.47 22.816 163.314 27.2498" stroke="#1A2147" stroke-width="2" stroke-linecap="round"/>
</svg>
